<?xml version="1.0" encoding="utf-8"?>
<!-- Generator: Adobe Illustrator 23.0.3, SVG Export Plug-In . SVG Version: 6.00 Build 0)  -->
<svg version="1.1" id="katman_1" xmlns="http://www.w3.org/2000/svg" xmlns:xlink="http://www.w3.org/1999/xlink" x="0px" y="0px"
	 viewBox="0 0 599.8 600" style="enable-background:new 0 0 599.8 600;" xml:space="preserve">
<style type="text/css">
	.st0{fill-rule:evenodd;clip-rule:evenodd;fill:#2453A6;}
	.st1{fill-rule:evenodd;clip-rule:evenodd;fill:#FFFFFF;}
	.st2{fill-rule:evenodd;clip-rule:evenodd;fill:url(#SVGID_1_);}
	.st3{fill-rule:evenodd;clip-rule:evenodd;fill:#1755A8;}
	.st4{fill-rule:evenodd;clip-rule:evenodd;fill:#3EE2F7;}
</style>
<g transform="translate(1 1)">
	<path class="st0" d="M298.7,111.6c-104.1,0-188.4,83-188.4,185.3c0,31,7.9,60.3,21.5,86.1l-52.6,33l0,0c-3.2,2-5.3,5.4-5.3,9.4
		c0,5.7,4.4,10.4,10.1,11v0.2l99.5,7.3c31.8,24.2,71.7,38.6,114.9,38.6h0.2h0.2c43.3,0,83.2-14.4,114.9-38.6l99.5-7.3v-0.2
		c5.6-0.6,10.1-5.3,10.1-11c0-3.9-2.1-7.4-5.3-9.4l0,0l-52.3-33.3c13.6-25.7,21.3-54.7,21.3-85.8
		C487.2,194.4,402.8,111.6,298.7,111.6z"/>
	<path class="st1" d="M305.6,458.7c0.9-0.2,1.8-0.2,2.6-0.3c1.5-0.2,3-0.3,4.5-0.5c0.9-0.2,1.8-0.3,2.7-0.5c1.5-0.2,2.9-0.5,4.4-0.6
		c0.9-0.2,1.8-0.3,2.6-0.5c1.4-0.3,2.9-0.6,4.2-0.9c0.9-0.2,1.7-0.5,2.6-0.6c1.4-0.3,2.9-0.6,4.2-1.1c0.8-0.2,1.5-0.5,2.4-0.8
		c1.4-0.5,2.9-0.8,4.2-1.2c0.8-0.3,1.5-0.5,2.3-0.8c1.4-0.5,2.9-0.9,4.2-1.5c0.8-0.3,1.4-0.6,2.1-0.8c1.4-0.6,2.9-1.1,4.2-1.7
		c0.6-0.3,1.2-0.6,2-0.8c1.4-0.6,2.9-1.2,4.2-2c0.6-0.3,1.2-0.6,1.8-0.9c1.4-0.8,2.9-1.4,4.2-2.1c0.6-0.3,1.1-0.6,1.7-0.9
		c1.4-0.8,2.9-1.5,4.2-2.3c0.5-0.3,0.9-0.6,1.5-0.9c1.4-0.9,2.7-1.7,4.1-2.6c0.5-0.3,0.9-0.6,1.4-0.9c1.4-0.9,2.7-1.8,4.1-2.7
		c0.5-0.3,0.8-0.6,1.2-0.9c1.4-0.9,2.6-2,3.9-3c0.5-0.3,0.8-0.6,1.2-0.9c1.2-1.1,2.6-2.1,3.8-3.2c0.2-0.2,0.3-0.2,0.3-0.3l76.2-6.5
		l-47.9-30.2c0-0.2,0-0.2,0.2-0.3c0.9-1.8,3.6-7.6,4.4-9.4c0-0.2,0.2-0.3,0.2-0.3c2.4-6.2,4.2-12.7,5.3-19.5
		c1.1-5.7,1.5-11.6,1.5-17.7c0-66.5-62.9-120.4-140.6-120.4S151,272.5,151,338.9c0,6,0.6,11.9,1.5,17.7c0.3,1.5,0.6,2.9,0.9,4.4
		c0.2,0.5,0.2,0.9,0.3,1.4c0.3,1.4,0.6,2.6,1.1,3.9c0.2,0.6,0.3,1.1,0.5,1.7c0.3,1.2,0.8,2.4,1.2,3.6c0.2,0.6,0.3,1.2,0.6,1.8
		c0.5,1.2,0.9,2.4,1.4,3.5c0.3,0.6,0.5,1.2,0.8,1.8c0.5,1.2,0.9,2.3,1.5,3.5c0.3,0.6,0.6,1.2,0.8,1.8c0.6,1.2,1.1,2.3,1.7,3.3
		c0.3,0.6,0.6,1.1,0.9,1.7c0.6,1.1,1.2,2.3,1.8,3.3c0.3,0.5,0.6,0.9,0.9,1.5c0.8,1.2,1.4,2.3,2.1,3.5c0.2,0.3,0.5,0.8,0.8,1.1
		c2.7,4.1,5.7,8,8.9,11.8c0.2,0.2,0.3,0.5,0.5,0.6c0.9,0.9,1.7,2,2.6,2.9c0.5,0.5,0.9,1.1,1.4,1.5c0.8,0.9,1.7,1.7,2.6,2.6
		c0.6,0.6,1.1,1.1,1.7,1.7c0.8,0.8,1.7,1.5,2.6,2.3c0.6,0.6,1.2,1.2,2,1.7c0.9,0.8,1.7,1.5,2.6,2.1c0.8,0.6,1.4,1.2,2.1,1.7
		c0.9,0.8,1.7,1.4,2.6,2c0.8,0.6,1.5,1.1,2.3,1.7c0.9,0.6,1.8,1.2,2.6,1.8c0.8,0.6,1.7,1.1,2.4,1.7c0.9,0.6,1.8,1.2,2.7,1.7
		c0.9,0.6,1.8,1.1,2.6,1.7c0.9,0.5,1.8,1.1,2.7,1.5c0.9,0.6,2,1.1,2.9,1.7c0.9,0.5,1.7,0.9,2.6,1.4c1.4,0.8,2.9,1.4,4.2,2.1
		c0.9,0.5,2,0.9,2.9,1.4c1.4,0.6,2.7,1.2,4.1,1.8c0.8,0.3,1.7,0.6,2.4,0.9c1.2,0.5,2.4,0.9,3.5,1.4c0.9,0.3,1.8,0.6,2.6,0.9
		c1.2,0.5,2.3,0.8,3.5,1.2c0.9,0.3,1.8,0.6,2.7,0.9c1.2,0.3,2.3,0.8,3.5,1.1c0.9,0.3,1.8,0.5,2.9,0.8c1.2,0.3,2.4,0.6,3.6,0.9
		c0.9,0.2,2,0.5,2.9,0.6c1.2,0.3,2.4,0.5,3.6,0.8c0.9,0.2,2,0.3,2.9,0.5c1.2,0.2,2.6,0.5,3.8,0.6c0.9,0.2,1.8,0.3,2.9,0.5
		c1.4,0.2,2.7,0.3,4.1,0.5c0.9,0.2,1.8,0.2,2.7,0.3c1.5,0.2,3,0.2,4.5,0.3c0.8,0,1.5,0.2,2.3,0.2c2.3,0.2,4.5,0.2,7,0.2
		s4.8,0,7.3-0.2c0.8,0,1.5-0.2,2.3-0.2C302.2,458.8,303.9,458.8,305.6,458.7z"/>
	<g transform="translate(10 22)">
		
			<linearGradient id="SVGID_1_" gradientUnits="userSpaceOnUse" x1="-9.6588" y1="181.6242" x2="-9.6588" y2="164.9616" gradientTransform="matrix(18.987 0 0 6.1719 483.2571 -683.7081)">
			<stop  offset="0" style="stop-color:#3DE2F6"/>
			<stop  offset="1" style="stop-color:#FFFFFF"/>
		</linearGradient>
		<path class="st2" d="M458,394.2L410,363.9c3.6-8.2,8.5-20.6,10-29.5c-32.4,35.2-82.7,57.8-139.1,57.8s-106.8-22.7-139.1-57.8
			c10,58.1,68.5,102.8,139.1,102.8c39.6,0,75.3-14.1,100.9-36.6L458,394.2z"/>
	</g>
	<path class="st3" d="M257,313.5c0,12.4-10.1,22.4-22.8,22.4c-12.6,0-22.7-10-22.7-22.4c0-12.4,10.1-22.4,22.7-22.4
		C246.9,291.1,257,301.1,257,313.5z M371,313.5c0,12.4-10.1,22.4-22.7,22.4c-12.6,0-22.8-10-22.8-22.4c0-12.4,10.1-22.4,22.8-22.4
		C360.8,291.1,371,301.1,371,313.5z"/>
	<path class="st4" d="M269,363.1c0.5,11.9,10.4,21.6,22.7,21.6c12.3,0,22.4-9.7,22.7-21.6H269z"/>
</g>
</svg>
